# Blender v2.79 (sub 0) OBJ File: ''
# www.blender.org
mtllib sphere_05m.mtl
o Cube
v 0.323747 -0.323747 -0.323747
v 0.323747 -0.323747 0.323747
v -0.323747 -0.323747 0.323747
v -0.323747 -0.323747 -0.323747
v 0.323748 0.323747 -0.323747
v 0.323747 0.323747 0.323748
v -0.323748 0.323747 0.323747
v -0.323747 0.323747 -0.323747
v 0.396508 -0.396508 0.000000
v 0.000000 -0.396508 -0.396508
v 0.396508 -0.000000 -0.396508
v -0.000000 -0.396508 0.396508
v 0.396508 -0.000000 0.396508
v -0.396508 -0.396508 -0.000000
v -0.396508 -0.000000 0.396508
v -0.396508 -0.000000 -0.396508
v 0.396508 0.396508 0.000000
v 0.000000 0.396508 -0.396508
v -0.000000 0.396508 0.396508
v -0.396508 0.396508 -0.000000
v 0.000000 -0.000000 -0.560747
v -0.560747 -0.000000 -0.000000
v -0.000000 -0.000000 0.560747
v 0.560747 -0.000000 0.000000
v -0.000000 0.560747 0.000000
v 0.000000 -0.560747 -0.000000
v 0.377880 -0.377880 0.169853
v -0.169853 -0.377880 -0.377880
v 0.377880 0.169853 -0.377880
v -0.169853 -0.377880 0.377880
v 0.377880 0.169853 0.377880
v -0.377880 -0.377880 -0.169853
v -0.377880 0.169853 0.377880
v -0.377880 0.169853 -0.377880
v 0.377880 0.377880 0.169854
v -0.169853 0.377880 -0.377880
v -0.169854 0.377880 0.377880
v -0.377880 0.377880 -0.169853
v 0.377880 -0.377880 -0.169853
v 0.169853 -0.377880 -0.377880
v 0.377880 -0.169853 -0.377880
v 0.169853 -0.377880 0.377880
v 0.377880 -0.169853 0.377880
v -0.377880 -0.377880 0.169853
v -0.377880 -0.169853 0.377880
v -0.377880 -0.169853 -0.377880
v 0.377880 0.377880 -0.169853
v 0.169853 0.377880 -0.377880
v 0.169853 0.377880 0.377880
v -0.377880 0.377880 0.169853
v -0.214588 -0.000000 -0.518063
v 0.214589 -0.000000 -0.518063
v 0.000000 0.214589 -0.518063
v 0.000000 -0.214589 -0.518063
v -0.518063 -0.000000 -0.214589
v -0.518063 -0.000000 0.214588
v -0.518063 -0.214589 -0.000000
v -0.518063 0.214589 -0.000000
v -0.214589 -0.000000 0.518063
v 0.214588 -0.000000 0.518063
v -0.000000 -0.214589 0.518063
v -0.000000 0.214589 0.518063
v 0.518063 -0.000000 0.214589
v 0.518063 -0.000000 -0.214588
v 0.518063 -0.214589 0.000000
v 0.518063 0.214589 0.000000
v -0.000000 0.518063 0.214589
v 0.000000 0.518063 -0.214589
v 0.214589 0.518063 0.000000
v -0.214589 0.518063 0.000000
v -0.214589 -0.518063 -0.000000
v 0.214589 -0.518063 -0.000000
v 0.000000 -0.518063 -0.214589
v 0.000000 -0.518063 0.214589
v 0.205795 -0.479306 0.205795
v 0.205795 -0.479306 -0.205795
v -0.205795 -0.479306 -0.205795
v -0.205795 0.479306 -0.205795
v 0.205795 0.479306 -0.205795
v 0.205795 0.479306 0.205795
v 0.479306 0.205795 -0.205795
v 0.479306 -0.205795 -0.205795
v 0.479306 -0.205795 0.205795
v 0.205795 0.205795 0.479306
v 0.205795 -0.205795 0.479306
v -0.205795 -0.205795 0.479306
v -0.479306 0.205795 0.205795
v -0.479306 -0.205795 0.205795
v -0.479306 -0.205795 -0.205795
v 0.205795 -0.205795 -0.479306
v 0.205795 0.205795 -0.479306
v -0.205795 0.205795 -0.479306
v -0.205795 -0.205795 -0.479306
v -0.479306 0.205795 -0.205795
v -0.205795 0.205795 0.479306
v 0.479306 0.205795 0.205795
v -0.205795 0.479306 0.205795
v -0.205795 -0.479306 0.205795
vn -0.4823 -0.7313 0.4823
vn -0.4823 0.7313 0.4823
vn 0.7313 0.4823 0.4823
vn -0.4823 0.4823 0.7313
vn -0.7313 0.4823 -0.4823
vn -0.4823 -0.4823 -0.7313
vn -0.5376 0.1655 -0.8268
vn 0.1905 0.1905 -0.9630
vn 0.1655 -0.5376 -0.8268
vn -0.8268 -0.1655 -0.5376
vn -0.9630 -0.1905 0.1905
vn -0.8268 0.5376 0.1655
vn -0.5376 -0.1655 0.8268
vn 0.1905 -0.1905 0.9630
vn 0.1655 0.5376 0.8268
vn 0.8268 -0.1655 0.5376
vn 0.9630 -0.1905 -0.1905
vn 0.8268 0.5376 -0.1655
vn 0.1655 0.8268 0.5376
vn 0.1905 0.9630 -0.1905
vn -0.5376 0.8268 -0.1655
vn -0.5376 -0.8268 -0.1655
vn 0.1905 -0.9630 -0.1905
vn 0.1655 -0.8268 0.5376
vn 0.1905 -0.9630 0.1905
vn 0.5376 -0.8268 0.1655
vn 0.4823 -0.7313 0.4823
vn 0.1655 -0.8268 -0.5376
vn 0.4823 -0.7313 -0.4823
vn 0.5376 -0.8268 -0.1655
vn -0.4823 -0.7313 -0.4823
vn -0.1655 -0.8268 -0.5376
vn -0.1905 -0.9630 -0.1905
vn -0.1905 0.9630 -0.1905
vn -0.1655 0.8268 -0.5376
vn -0.4823 0.7313 -0.4823
vn 0.5376 0.8268 -0.1655
vn 0.4823 0.7313 -0.4823
vn 0.1655 0.8268 -0.5376
vn 0.4823 0.7313 0.4823
vn 0.5376 0.8268 0.1655
vn 0.1905 0.9630 0.1905
vn 0.9630 0.1905 -0.1905
vn 0.8268 0.1655 -0.5376
vn 0.7313 0.4823 -0.4823
vn 0.8268 -0.5376 -0.1655
vn 0.7313 -0.4823 -0.4823
vn 0.8268 -0.1655 -0.5376
vn 0.7313 -0.4823 0.4823
vn 0.8268 -0.5376 0.1655
vn 0.9630 -0.1905 0.1906
vn 0.1905 0.1905 0.9630
vn 0.5376 0.1655 0.8268
vn 0.4823 0.4823 0.7313
vn 0.1655 -0.5376 0.8268
vn 0.4823 -0.4823 0.7313
vn 0.5376 -0.1655 0.8268
vn -0.4823 -0.4823 0.7313
vn -0.1655 -0.5376 0.8268
vn -0.1906 -0.1905 0.9630
vn -0.9630 0.1905 0.1905
vn -0.8268 0.1655 0.5376
vn -0.7313 0.4823 0.4823
vn -0.8268 -0.5376 0.1655
vn -0.7313 -0.4823 0.4823
vn -0.8268 -0.1655 0.5376
vn -0.7313 -0.4823 -0.4823
vn -0.8268 -0.5376 -0.1655
vn -0.9630 -0.1905 -0.1905
vn 0.1906 -0.1905 -0.9630
vn 0.5376 -0.1655 -0.8268
vn 0.4823 -0.4823 -0.7313
vn 0.1655 0.5376 -0.8268
vn 0.4823 0.4823 -0.7313
vn 0.5376 0.1655 -0.8268
vn -0.4823 0.4823 -0.7313
vn -0.1655 0.5376 -0.8268
vn -0.1905 0.1905 -0.9630
vn -0.5376 -0.1655 -0.8268
vn -0.1905 -0.1905 -0.9630
vn -0.1655 -0.5376 -0.8268
vn -0.8268 0.1655 -0.5376
vn -0.9630 0.1905 -0.1905
vn -0.8268 0.5376 -0.1655
vn -0.5376 0.1655 0.8268
vn -0.1906 0.1905 0.9630
vn -0.1655 0.5376 0.8268
vn 0.8268 0.1655 0.5376
vn 0.9630 0.1905 0.1906
vn 0.8268 0.5376 0.1655
vn -0.1655 0.8268 0.5376
vn -0.1905 0.9630 0.1905
vn -0.5376 0.8268 0.1655
vn -0.5376 -0.8268 0.1655
vn -0.1905 -0.9630 0.1905
vn -0.1655 -0.8268 0.5376
usemtl Material
s off
f 98//1 30//1 3//1 44//1
f 97//2 50//2 7//2 37//2
f 96//3 35//3 6//3 31//3
f 95//4 37//4 7//4 33//4
f 94//5 38//5 8//5 34//5
f 93//6 28//6 4//6 46//6
f 92//7 51//7 16//7 34//7
f 91//8 52//8 21//8 53//8
f 90//9 40//9 10//9 54//9
f 89//10 55//10 16//10 46//10
f 88//11 56//11 22//11 57//11
f 87//12 50//12 20//12 58//12
f 86//13 59//13 15//13 45//13
f 85//14 60//14 23//14 61//14
f 84//15 49//15 19//15 62//15
f 83//16 63//16 13//16 43//16
f 82//17 64//17 24//17 65//17
f 81//18 47//18 17//18 66//18
f 80//19 67//19 19//19 49//19
f 79//20 68//20 25//20 69//20
f 78//21 38//21 20//21 70//21
f 77//22 71//22 14//22 32//22
f 76//23 72//23 26//23 73//23
f 75//24 42//24 12//24 74//24
f 72//25 75//25 74//25 26//25
f 9//26 27//26 75//26 72//26
f 27//27 2//27 42//27 75//27
f 40//28 76//28 73//28 10//28
f 1//29 39//29 76//29 40//29
f 39//30 9//30 72//30 76//30
f 28//31 77//31 32//31 4//31
f 10//32 73//32 77//32 28//32
f 73//33 26//33 71//33 77//33
f 68//34 78//34 70//34 25//34
f 18//35 36//35 78//35 68//35
f 36//36 8//36 38//36 78//36
f 47//37 79//37 69//37 17//37
f 5//38 48//38 79//38 47//38
f 48//39 18//39 68//39 79//39
f 35//40 80//40 49//40 6//40
f 17//41 69//41 80//41 35//41
f 69//42 25//42 67//42 80//42
f 64//43 81//43 66//43 24//43
f 11//44 29//44 81//44 64//44
f 29//45 5//45 47//45 81//45
f 39//46 82//46 65//46 9//46
f 1//47 41//47 82//47 39//47
f 41//48 11//48 64//48 82//48
f 27//49 83//49 43//49 2//49
f 9//50 65//50 83//50 27//50
f 65//51 24//51 63//51 83//51
f 60//52 84//52 62//52 23//52
f 13//53 31//53 84//53 60//53
f 31//54 6//54 49//54 84//54
f 42//55 85//55 61//55 12//55
f 2//56 43//56 85//56 42//56
f 43//57 13//57 60//57 85//57
f 30//58 86//58 45//58 3//58
f 12//59 61//59 86//59 30//59
f 61//60 23//60 59//60 86//60
f 56//61 87//61 58//61 22//61
f 15//62 33//62 87//62 56//62
f 33//63 7//63 50//63 87//63
f 44//64 88//64 57//64 14//64
f 3//65 45//65 88//65 44//65
f 45//66 15//66 56//66 88//66
f 32//67 89//67 46//67 4//67
f 14//68 57//68 89//68 32//68
f 57//69 22//69 55//69 89//69
f 52//70 90//70 54//70 21//70
f 11//71 41//71 90//71 52//71
f 41//72 1//72 40//72 90//72
f 48//73 91//73 53//73 18//73
f 5//74 29//74 91//74 48//74
f 29//75 11//75 52//75 91//75
f 36//76 92//76 34//76 8//76
f 18//77 53//77 92//77 36//77
f 53//78 21//78 51//78 92//78
f 51//79 93//79 46//79 16//79
f 21//80 54//80 93//80 51//80
f 54//81 10//81 28//81 93//81
f 55//82 94//82 34//82 16//82
f 22//83 58//83 94//83 55//83
f 58//84 20//84 38//84 94//84
f 59//85 95//85 33//85 15//85
f 23//86 62//86 95//86 59//86
f 62//87 19//87 37//87 95//87
f 63//88 96//88 31//88 13//88
f 24//89 66//89 96//89 63//89
f 66//90 17//90 35//90 96//90
f 67//91 97//91 37//91 19//91
f 25//92 70//92 97//92 67//92
f 70//93 20//93 50//93 97//93
f 71//94 98//94 44//94 14//94
f 26//95 74//95 98//95 71//95
f 74//96 12//96 30//96 98//96
